<svg width="200" height="200" viewBox="0 0 200 200" fill="none" xmlns="http://www.w3.org/2000/svg">
<path opacity="0.8" fill-rule="evenodd" clip-rule="evenodd" d="M129.658 82.014H161.01V87.7878H148.572V118.165H142.353V87.7878H129.658V82.014ZM187.117 106.856C187.05 106.217 186.755 105.716 186.242 105.358C185.721 104.997 185.054 104.818 184.231 104.818C183.654 104.818 183.159 104.906 182.744 105.077C182.332 105.249 182.012 105.481 181.791 105.775C181.573 106.07 181.464 106.407 181.454 106.782C181.454 107.098 181.531 107.371 181.678 107.599C181.826 107.831 182.023 108.027 182.28 108.185C182.533 108.347 182.814 108.476 183.123 108.585C183.436 108.694 183.746 108.785 184.059 108.859L185.496 109.21C186.073 109.343 186.632 109.522 187.17 109.75C187.704 109.974 188.189 110.258 188.615 110.602C189.04 110.946 189.378 111.36 189.624 111.844C189.873 112.331 190 112.9 190 113.552C190 114.436 189.771 115.211 189.314 115.881C188.854 116.548 188.193 117.07 187.325 117.446C186.46 117.821 185.416 118.01 184.185 118.01C182.997 118.01 181.96 117.828 181.088 117.463C180.212 117.102 179.527 116.572 179.035 115.878C178.543 115.18 178.279 114.331 178.24 113.331H180.968C181.007 113.854 181.176 114.289 181.464 114.643C181.752 114.99 182.132 115.246 182.596 115.422C183.064 115.59 183.587 115.678 184.164 115.678C184.765 115.678 185.296 115.587 185.757 115.408C186.21 115.229 186.569 114.983 186.825 114.657C187.089 114.341 187.219 113.963 187.223 113.531C187.219 113.138 187.1 112.812 186.875 112.552C186.643 112.296 186.323 112.082 185.911 111.907C185.5 111.735 185.018 111.577 184.47 111.44L182.726 111.002C181.468 110.683 180.469 110.195 179.738 109.546C179.007 108.894 178.645 108.034 178.645 106.954C178.645 106.067 178.887 105.288 179.383 104.621C179.871 103.955 180.539 103.436 181.387 103.067C182.237 102.696 183.197 102.513 184.27 102.513C185.356 102.513 186.309 102.696 187.131 103.067C187.95 103.436 188.597 103.948 189.065 104.604C189.532 105.26 189.775 106.007 189.789 106.856H187.117ZM173.023 102.717H175.779V113.307C175.776 114.282 175.565 115.113 175.15 115.815C174.735 116.516 174.155 117.049 173.417 117.425C172.678 117.8 171.814 117.989 170.833 117.989C169.936 117.989 169.131 117.828 168.414 117.512C167.697 117.197 167.127 116.727 166.712 116.106C166.291 115.481 166.083 114.71 166.083 113.78H168.843C168.846 114.187 168.941 114.538 169.117 114.832C169.293 115.127 169.539 115.352 169.848 115.509C170.165 115.667 170.53 115.744 170.938 115.744C171.381 115.744 171.757 115.653 172.067 115.467C172.373 115.285 172.612 115.011 172.773 114.647C172.935 114.285 173.02 113.84 173.023 113.307V102.717ZM162.409 117.944C161.952 117.944 161.566 117.786 161.242 117.47C160.919 117.158 160.757 116.776 160.761 116.323C160.757 115.885 160.919 115.509 161.242 115.194C161.566 114.878 161.952 114.72 162.409 114.72C162.849 114.72 163.232 114.878 163.555 115.194C163.882 115.509 164.048 115.885 164.051 116.323C164.048 116.621 163.974 116.895 163.819 117.141C163.664 117.39 163.468 117.583 163.218 117.726C162.972 117.87 162.705 117.944 162.409 117.944ZM46.7453 117.895L17.773 82H10V118.151H16.2191V89.7276L39.148 118.165H78.0941V112.391H52.9609V102.85H73.1723V97.0763H52.9609V87.7878H78.0941V82.014H46.7418V87.7878H46.7453V117.895ZM102.102 107.852L98.0242 102.794L85.5894 118.207H93.7492L102.102 107.852ZM93.7492 82.0316H85.6105L114.762 118.179H122.922L108.346 100.117L122.901 82.0561L114.762 82.0702L104.271 95.0698L93.7492 82.0316Z" fill="black"/>
</svg>
